<svg width="149" height="37" viewBox="0 0 149 37" fill="none" xmlns="http://www.w3.org/2000/svg">
<path d="M19.3953 3.87389C17.5048 1.98337 15.1942 1.07312 12.4634 1.07312H4.76131V5.83443H12.0433C13.5837 5.83443 14.704 6.39458 15.6143 7.23481C16.5245 8.07504 16.9447 9.19535 16.9447 10.5257C16.9447 11.8561 16.5245 13.0464 15.6143 13.9567C14.704 14.8669 13.5137 15.357 12.0433 15.357L6.09167 15.4271H0V29.4309H5.53152V20.3284L12.4634 20.2584C15.2642 20.2584 17.5748 19.2781 19.4653 17.4576C21.3559 15.6371 22.2661 13.3965 22.2661 10.7358C22.1961 8.00502 21.2158 5.76441 19.3953 3.87389Z" fill="#1F1FFF"/>
<path d="M4.76131 5.83447H0V10.5958H4.76131V5.83447Z" fill="#1F1FFF"/>
<path d="M31.7187 29.1508C30.8785 29.1508 30.0383 29.0808 29.198 28.8707C28.3578 28.6607 27.5176 28.3806 26.7474 27.8904C25.9071 27.4703 25.2769 26.7701 24.7868 25.8599C24.2967 24.9496 24.0166 23.8993 24.0166 22.709C24.0166 20.5384 24.7168 18.928 26.1872 17.8777C27.6576 16.8274 29.6882 16.2672 32.3489 16.2672L38.4406 16.1972V15.0769C38.4406 14.0266 38.0204 13.2564 37.1802 12.7663C36.34 12.2762 35.2897 11.9961 33.8893 11.9961C31.3686 11.9961 29.8282 12.8363 29.3381 14.5168L24.5067 14.6568C24.5067 12.6262 25.417 10.9458 27.2375 9.68544C29.058 8.42509 31.2286 7.79492 33.8193 7.79492C36.41 7.79492 38.6506 8.42509 40.4711 9.68544C42.2916 10.9458 43.2719 12.5562 43.2719 14.5868V28.8707H38.5106V26.28C37.9504 26.9802 37.0402 27.6804 35.9199 28.2405C34.6595 28.8707 33.3292 29.1508 31.7187 29.1508ZM32.2089 24.9496C33.7493 24.9496 35.2197 24.4595 36.48 23.4792C37.8104 22.499 38.4406 21.3086 38.4406 19.8382H33.3292C31.8588 19.8382 30.8085 20.1183 30.0383 20.6785C29.3381 21.2386 28.988 21.9388 29.128 22.779C29.198 24.2494 30.2483 24.9496 32.2089 24.9496Z" fill="#1F1FFF"/>
<path d="M50.2738 36.9929L53.5647 28.7307L45.0223 8.14502H50.4138L56.1554 22.8491L61.6169 8.14502H66.9384L55.5252 36.9929H50.2738Z" fill="#1F1FFF"/>
<path d="M74.9206 1.56323H69.8792V28.8707H74.9206V1.56323Z" fill="#1F1FFF"/>
<path d="M85.2134 8.14502H80.172V28.8007H85.2134V8.14502Z" fill="#1F1FFF"/>
<path d="M95.2261 28.8007L88.7144 8.14502H94.1058L99.3573 25.5798L104.609 8.14502H110L103.488 28.8007H95.2261Z" fill="#1F1FFF"/>
<path d="M113.221 28.8007V8.14507H118.263V11.2259C118.963 10.0356 119.943 9.19536 121.203 8.56518C122.534 7.93501 124.074 7.79497 125.965 8.07505V13.5365C124.004 12.9064 122.254 13.0464 120.643 13.9567C119.033 14.8669 118.263 16.3373 118.263 18.2979V28.8007H113.221Z" fill="#1F1FFF"/>
<path d="M137.728 29.1508C134.787 29.1508 132.266 28.1005 130.166 26C128.065 23.8994 127.085 21.3787 127.085 18.5079C127.085 15.4971 128.135 12.9764 130.236 10.9458C132.336 8.84526 134.857 7.86499 137.728 7.86499C140.249 7.86499 142.559 8.70522 144.52 10.3157C146.48 11.9961 147.671 14.0267 148.161 16.4774C148.441 17.8777 148.511 19.1381 148.231 20.3984H132.196C132.476 21.7288 133.107 22.7791 134.157 23.5493C135.137 24.3195 136.397 24.6696 137.798 24.6696C139.968 24.6696 141.719 23.9694 143.119 22.499L147.531 23.6893C146.69 25.2998 145.36 26.6301 143.539 27.6104C141.579 28.6607 139.688 29.1508 137.728 29.1508ZM132.126 16.4774H143.259C142.979 15.287 142.349 14.3068 141.369 13.4665C140.389 12.6263 139.198 12.2762 137.728 12.2762C136.327 12.2762 135.067 12.6963 134.087 13.4665C133.037 14.3068 132.406 15.287 132.126 16.4774Z" fill="#1F1FFF"/>
<path d="M93.6857 0.23291H80.172V5.27429H93.6857V0.23291Z" fill="url(#paint0_linear)"/>
<defs>
<linearGradient id="paint0_linear" x1="93.688" y1="2.76684" x2="80.2014" y2="2.76684" gradientUnits="userSpaceOnUse">
<stop stop-color="#1F1FFF" stop-opacity="0"/>
<stop offset="0.8342" stop-color="#1F1FFF"/>
</linearGradient>
</defs>
</svg>
